<?xml version="1.0" encoding="utf-8"?>
<!-- Generator: Adobe Illustrator 16.0.4, SVG Export Plug-In . SVG Version: 6.00 Build 0)  -->
<!DOCTYPE svg PUBLIC "-//W3C//DTD SVG 1.1//EN" "http://www.w3.org/Graphics/SVG/1.1/DTD/svg11.dtd">
<svg version="1.1" id="Ebene_1" xmlns="http://www.w3.org/2000/svg" xmlns:xlink="http://www.w3.org/1999/xlink" x="0px" y="0px"
	 width="468.1px" height="91.059px" viewBox="0 0 468.1 91.059" enable-background="new 0 0 468.1 91.059" xml:space="preserve">
<path fill="#1D1D1B" d="M115.615,49.426h5.74c1.003,0,4.51-0.154,7.546-2.123c3.321-2.152,5.005-5.695,5.005-10.527
	c0-3.482-1.285-6.002-3.82-7.488c-1.765-1.037-4.096-1.562-6.93-1.562h-10.851c-1.347,0-1.955,0.555-2.101,1.91l-3.299,31.496
	c0.002,1.061,0.799,1.494,2.75,1.494h1.699c1.983,0,2.953-0.48,3.051-1.51L115.615,49.426z M117.266,34.074h4.891
	c1.202,0,4,0.367,4,3.75c0,1.924-0.577,3.346-1.715,4.225c-1.045,0.807-2.336,0.977-3.235,0.977h-4.911L117.266,34.074z
	 M151.689,61.467c-1.032-1.031-1.533-2.6-1.533-4.791c0-0.676,0.365-4.184,0.689-7.279c0.246-2.367,0.46-4.414,0.46-4.721
	c0-1.75-0.915-2.602-2.8-2.602c-1.557,0-3.031,0.975-4.382,2.893l-0.015,0.021l-1.703,16.127c-0.119,1.248-1.725,1.51-3.051,1.51
	h-1.399c-1.267,0-2.745-0.379-2.75-1.445l3.649-34.645c0.119-1.248,1.725-1.51,3.051-1.51h1.399c1.267,0,2.745,0.379,2.75,1.445
	l-1.38,13.287l0.203-0.215c1.467-1.553,4.254-3.367,7.277-3.367c4.434,0,6.5,1.984,6.5,6.25c0,0.58-0.364,4.105-0.686,7.217
	c-0.29,2.818-0.564,5.48-0.564,5.883c0,1.209,0.493,1.75,1.6,1.75c0.473,0,0.882-0.133,1.152-0.221
	c0.131-0.043,0.244-0.08,0.298-0.08c0.214,0,0.3,0.018,0.3,0.451c0,0.008-0.031,1.133-0.349,2.982
	c-0.3,1.848-2.736,2.518-4.302,2.518C154.115,62.926,152.67,62.447,151.689,61.467z M188.256,47.074
	c0-7.131-3.718-10.898-10.75-10.898c-4.781,0-8.377,1.648-10.688,4.9c-1.906,2.682-2.913,6.484-2.913,10.998
	c0,7.1,3.718,10.852,10.75,10.852c4.159,0,7.597-1.418,9.943-4.098C186.99,56.096,188.256,52.031,188.256,47.074z M175.256,57.275
	c-2.727,0-4.051-1.816-4.051-5.551c0-3.17,0.506-5.643,1.501-7.35c0.974-1.668,2.425-2.551,4.199-2.551c2.691,0,4,1.832,4,5.602
	C180.905,53.686,178.846,57.275,175.256,57.275z M206.204,37.475c0,1.941-0.997,4.75-2.8,4.75h-1.54l-0.01,0.09
	c-0.144,1.336-1.4,13.061-1.4,13.211c0,1.209,0.493,1.75,1.601,1.75c0.64,0,1.171-0.135,1.522-0.223
	c0.17-0.043,0.305-0.078,0.377-0.078c0.214,0,0.3,0.018,0.3,0.451c0,0.008-0.031,1.133-0.349,2.982
	c-0.164,1.012-1.444,2.518-4.302,2.518c-2.033,0-3.607-0.523-4.68-1.555c-1.141-1.096-1.72-2.777-1.72-4.996
	c0-1.082,1.435-13.91,1.449-14.039l0.013-0.111h-1.111c-0.842,0-1.201-0.508-1.201-1.699c0-2.658,0.59-3.951,1.801-3.951h1.09
	l0.51-4.84c0.119-1.248,1.725-1.51,3.051-1.51h1.399c2.024,0,2.747,0.777,2.75,1.445l-0.511,4.904h3.061
	C206.112,36.574,206.204,36.777,206.204,37.475z M232.803,47.074c0-7.131-3.717-10.898-10.75-10.898
	c-4.779,0-8.375,1.648-10.687,4.9c-1.905,2.682-2.913,6.484-2.913,10.998c0,7.1,3.717,10.852,10.75,10.852
	c4.159,0,7.598-1.418,9.943-4.098C231.539,56.096,232.803,52.031,232.803,47.074z M219.803,57.275c-2.725,0-4.049-1.816-4.049-5.551
	c0-3.17,0.504-5.643,1.5-7.35c0.974-1.668,2.426-2.551,4.199-2.551c2.691,0,4,1.832,4,5.602
	C225.453,53.686,223.395,57.275,219.803,57.275z M261.602,29.625c0,2.994-0.588,4.449-1.8,4.449h-12.689l-0.821,7.451h11.311
	c0.594,0,1.2,0.225,1.2,1.9c0,2.994-0.589,4.449-1.8,4.449h-11.34l-0.922,8.301h12.712c0.593,0,1.2,0.225,1.2,1.898
	c0,2.996-0.59,4.451-1.801,4.451h-18.399c-1.304,0-1.7-0.352-1.7-1.5c0.01-0.393,3.217-31.08,3.25-31.391
	c0.145-1.355,0.754-1.91,2.1-1.91h18.301C260.995,27.725,261.602,27.951,261.602,29.625z M263.051,52.176
	c0,6.73,3.178,10.75,8.5,10.75c2.724,0,5.234-1.422,6.715-3.803l0.123-0.199l0.059,0.227c0.668,2.574,2.465,3.775,5.654,3.775
	c1.564,0,4.002-0.67,4.301-2.518c0.317-1.85,0.349-2.975,0.349-2.982c0-0.434-0.087-0.451-0.3-0.451
	c-0.054,0-0.166,0.037-0.297,0.08c-0.271,0.088-0.682,0.221-1.153,0.221c-1.106,0-1.601-0.541-1.601-1.75
	c0-0.5,2.918-27.814,3.051-29.055c-0.005-1.066-1.483-1.445-2.75-1.445h-1.4c-1.326,0-2.932,0.262-3.051,1.51
	c-0.004,0.047-0.508,4.779-1.25,11.602l-0.02,0.184l-0.143-0.119c-1.12-0.924-2.945-2.025-5.287-2.025
	c-3.335,0-6.201,1.523-8.287,4.408C264.162,43.488,263.051,47.496,263.051,52.176z M271.896,44.373
	c1.019-1.691,2.484-2.549,4.354-2.549c1.134,0,2.215,0.412,3.214,1.223l0.041,0.033l-0.006,0.055
	c-0.257,2.797-0.539,5.498-0.767,7.666c-0.131,1.248-0.243,2.324-0.333,3.234l-0.002,0.023l-0.013,0.02
	c-1.261,2.016-2.58,2.996-4.034,2.996c-2.654,0-4-1.799-4-5.35C270.352,48.549,270.871,46.076,271.896,44.373z M295.351,26.535
	c0.119-1.248,1.725-1.51,3.051-1.51h1.399c1.268,0,2.746,0.379,2.75,1.443l-0.449,4.098c-0.119,1.246-1.725,1.508-3.051,1.508
	h-1.399c-1.267,0-2.745-0.377-2.75-1.443L295.351,26.535z M294.15,37.984c0.119-1.248,1.725-1.51,3.051-1.51h1.4
	c1.266,0,2.744,0.379,2.75,1.445c-0.084,0.775-1.85,17.107-1.85,17.605c0,1.209,0.492,1.75,1.6,1.75
	c0.472,0,0.881-0.133,1.152-0.221c0.131-0.043,0.244-0.08,0.297-0.08c0.214,0,0.301,0.018,0.301,0.451
	c0,0.008-0.031,1.133-0.35,2.982c-0.299,1.848-2.736,2.518-4.301,2.518c-1.99,0-3.436-0.479-4.416-1.459
	c-1.032-1.031-1.533-2.6-1.533-4.791C292.252,55.297,294.132,38.158,294.15,37.984z M320.451,37.475c0,1.941-0.996,4.75-2.799,4.75
	h-1.541l-0.009,0.09c-0.144,1.336-1.401,13.061-1.401,13.211c0,1.209,0.494,1.75,1.601,1.75c0.641,0,1.171-0.135,1.522-0.223
	c0.171-0.043,0.305-0.078,0.377-0.078c0.214,0,0.301,0.018,0.301,0.451c0,0.008-0.031,1.133-0.349,2.982
	c-0.164,1.012-1.444,2.518-4.302,2.518c-2.033,0-3.607-0.523-4.68-1.555c-1.142-1.096-1.721-2.777-1.721-4.996
	c0-1.082,1.436-13.91,1.45-14.039l0.013-0.111h-1.112c-0.841,0-1.2-0.508-1.2-1.699c0-2.658,0.589-3.951,1.801-3.951h1.09l0.51-4.84
	c0.118-1.248,1.725-1.51,3.05-1.51h1.399c2.025,0,2.747,0.777,2.75,1.445l-0.51,4.904h3.061
	C320.359,36.574,320.451,36.777,320.451,37.475z M347.651,47.074c0-7.131-3.718-10.898-10.75-10.898c-4.78,0-8.376,1.648-10.687,4.9
	c-1.906,2.682-2.913,6.484-2.913,10.998c0,7.1,3.718,10.852,10.75,10.852c4.159,0,7.597-1.418,9.943-4.098
	C346.387,56.096,347.651,52.031,347.651,47.074z M334.651,57.275c-2.726,0-4.05-1.816-4.05-5.551c0-3.17,0.505-5.643,1.501-7.35
	c0.974-1.668,2.425-2.551,4.199-2.551c2.691,0,4,1.832,4,5.602C340.302,53.686,338.242,57.275,334.651,57.275z M368.021,41.279
	c-0.488,1.131-0.949,1.646-1.17,1.646c-0.178,0-0.339-0.064-0.543-0.146c-0.338-0.137-0.76-0.305-1.508-0.305
	c-2.245,0-3.846,1.812-4.43,2.59l-0.018,0.023l-0.002,0.029c-0.544,6.473-1.59,15.902-1.6,15.998
	c-0.119,1.248-1.725,1.51-3.051,1.51h-1.4c-1.267,0-2.745-0.379-2.75-1.445l1.699-16.395c0.175-1.686,0.201-2.955,0.201-3.561
	c0-0.672-0.031-1.234-0.059-1.732c-0.022-0.396-0.041-0.738-0.041-1.066c0-0.986,2.396-1.701,5.699-1.701
	c1.238,0,1.351,1.359,1.494,3.078l0.029,0.363l0.16-0.234c1.182-1.75,2.904-3.756,5.767-3.756c1.515,0,2.25,0.719,2.25,2.199
	C368.751,39.123,368.471,40.236,368.021,41.279z M382.5,59.824c0-2.842,0.49-3.148,0.701-3.148c0.091,0,0.356,0.162,0.664,0.354
	c1.158,0.713,3.565,2.195,7.436,2.195c1.984,0,3.821-0.658,5.172-1.855c1.404-1.244,2.178-3,2.178-4.943
	c0-3.549-3.195-4.832-6.578-6.189c-3.943-1.584-8.021-3.221-8.021-8.512c0-3.01,1.146-5.586,3.314-7.449
	c2.172-1.865,5.176-2.85,8.686-2.85c1.467,0,3.387,0.32,4.893,0.818c1.778,0.588,2.758,1.328,2.758,2.08
	c0,0.607-1.38,2.602-1.801,2.602c-0.201,0-0.504-0.172-0.922-0.406c-0.991-0.559-2.65-1.494-5.428-1.494
	c-1.968,0-3.75,0.537-5.018,1.514c-1.428,1.1-2.183,2.721-2.183,4.686c0,2.871,2.794,3.971,6.029,5.244
	c4.041,1.59,8.62,3.395,8.62,9.256c0,3.336-1.17,6.148-3.385,8.133c-2.168,1.941-5.182,2.967-8.715,2.967
	C388.658,62.824,382.5,62.113,382.5,59.824z M433.978,30.906c-2.333-2.111-5.639-3.182-9.827-3.182H413.4
	c-1.006,0-1.455,0.408-1.551,1.41c-3.349,32.096-3.349,32.195-3.349,32.291c0,0.791,0.351,1.1,1.25,1.1h10.75
	c4.907,0,9.077-1.568,12.061-4.533c3.576-3.557,5.39-8.979,5.39-16.117C437.951,36.982,436.613,33.291,433.978,30.906z
	 M429.536,55.23c-2.876,3.053-6.474,3.695-8.985,3.695h-7.611l0.012-0.111l2.859-27.49h7.59c3.104,0,5.546,0.838,7.258,2.492
	c1.953,1.885,2.942,4.832,2.942,8.758C433.601,48.109,432.233,52.367,429.536,55.23z M468.1,28.125c0,0.271-0.191,0.602-0.574,0.982
	L453.57,44.621l13.1,16.664c0.305,0.406,0.33,0.582,0.33,0.73c-0.039,0.449-0.604,0.609-2.15,0.609h-0.35
	c-1.406,0-2.197-0.096-2.621-0.611l-12.6-16.1l-0.029-0.039h-0.34l-1.658,15.736c-0.092,0.645-0.822,1.014-2.002,1.014h-0.4
	c-1.488,0-1.797-0.398-1.799-0.994l3.449-32.998c0.049-0.668,0.721-1.008,2-1.008h0.4c0.934,0,1.797,0.121,1.801,0.994l-1.6,15.295
	l-0.012,0.111h0.355l13.879-15.732c0.396-0.438,1.322-0.668,2.676-0.668h0.5C467.666,27.625,468.1,27.932,468.1,28.125z
	 M89.861,38.395l1.195-1.293l-1.369-1.109c-0.268-0.217-6.195-4.984-12.759-7.994c0.228-0.562,0.451-1.145,0.673-1.742
	c1.778-4.797,2.713-8.898,2.752-9.072l0.389-1.719l-1.74-0.273c-0.193-0.031-4.82-0.752-10.294-0.752
	c-1.696,0-3.28,0.068-4.75,0.207c-0.825-5.838-2.369-10.848-2.44-11.078l-0.523-1.682L59.35,2.518
	c-0.32,0.125-7.414,2.873-13.302,7.053c-3.577-4.582-7.367-8.111-7.653-8.375L37.102,0l-1.109,1.369
	c-0.289,0.357-5.002,6.232-7.99,12.762c-5.47-2.205-10.583-3.373-10.817-3.426l-1.719-0.389l-0.274,1.74
	c-0.055,0.34-1.219,7.855-0.545,15.043c-5.799,0.818-10.794,2.355-11.077,2.443l-1.683,0.521l0.633,1.645
	c0.06,0.158,1.501,3.887,3.877,8.195c1.051,1.906,2.109,3.609,3.172,5.107c-4.644,3.633-8.211,7.477-8.373,7.652L0,53.959
	l1.369,1.107c0.268,0.217,6.195,4.984,12.758,7.994c-0.227,0.564-0.451,1.145-0.672,1.742c-1.779,4.799-2.714,8.9-2.753,9.072
	l-0.389,1.719l1.74,0.275c0.194,0.029,4.82,0.75,10.294,0.75c1.697,0,3.281-0.068,4.75-0.205c0.825,5.836,2.369,10.848,2.441,11.076
	l0.522,1.682l1.645-0.631c0.321-0.125,7.414-2.873,13.302-7.053c3.578,4.582,7.367,8.111,7.653,8.375l1.294,1.195l1.108-1.369
	c0.289-0.357,5.003-6.23,7.991-12.762c5.469,2.205,10.583,3.373,10.816,3.426l1.719,0.389l0.275-1.74
	c0.054-0.34,1.219-7.855,0.545-15.043c5.798-0.816,10.793-2.354,11.076-2.441l1.683-0.523l-0.632-1.645
	c-0.061-0.156-1.502-3.887-3.877-8.195c-1.052-1.906-2.11-3.609-3.172-5.107C86.131,42.414,89.698,38.57,89.861,38.395z
	 M76.691,18.217c-0.43,1.607-1.166,4.146-2.184,6.893c-2.073,5.592-4.389,9.59-6.722,11.619H44.266l7.16-12.416l0.637-1.102
	c1.367-1.242,2.884-2.357,4.398-3.23c2.539-1.467,6.774-2.242,12.247-2.242C71.928,17.738,74.891,18.008,76.691,18.217z
	 M48.703,51.031h-6.35l-3.177-5.502l3.177-5.502h6.35l3.176,5.502L48.703,51.031z M58.861,6.295c0.517,1.924,1.32,5.225,1.828,8.805
	c-2.355,0.447-4.32,1.123-5.879,2.023c-1.045,0.602-2.088,1.305-3.092,2.078c-0.803-2.316-2.162-4.711-3.717-6.971
	C51.896,9.479,56.461,7.336,58.861,6.295z M37.457,4.883c1.178,1.178,3.01,3.086,4.879,5.34c3.805,4.59,6.109,8.594,6.7,11.629
	l-0.449,0.779l-11.311,19.59l-7.808-13.508c-0.393-1.807-0.6-3.678-0.6-5.426c0-3.148,1.65-7.547,4.77-12.721
	C35.066,8.199,36.507,6.164,37.457,4.883z M18.217,14.369c1.928,0.516,5.193,1.473,8.545,2.82c-0.729,2.094-1.191,4.176-1.191,6.098
	c0,1.205,0.086,2.459,0.254,3.715c-1.385-0.268-2.947-0.404-4.68-0.404c-1.06,0-2.14,0.049-3.217,0.137
	C17.492,21.986,17.919,16.969,18.217,14.369z M6.294,32.199c2.995-0.803,9.323-2.301,14.851-2.301c2.281,0,4.173,0.254,5.635,0.756
	l11.76,20.369l-15.603,0.008c-1.761-0.564-3.484-1.32-4.999-2.195c-2.726-1.572-5.711-5.201-8.632-10.49
	C7.97,35.928,6.928,33.662,6.294,32.199z M4.883,53.602c1.409-1.41,3.865-3.756,6.712-5.984c1.564,1.812,3.132,3.176,4.692,4.078
	c1.043,0.602,2.172,1.152,3.342,1.635c-1.464,1.684-2.861,3.924-4.182,6.705C11.119,58.039,6.986,55.16,4.883,53.602z
	 M14.365,72.844c0.432-1.617,1.174-4.176,2.197-6.932c2.068-5.57,4.379-9.557,6.707-11.58L46.79,54.33l-7.225,12.527l-0.571,0.99
	c-1.367,1.242-2.884,2.357-4.398,3.23c-2.54,1.467-6.775,2.242-12.248,2.242C19.128,73.32,16.166,73.051,14.365,72.844z
	 M32.194,84.764c-0.517-1.924-1.319-5.225-1.827-8.803c2.354-0.449,4.32-1.125,5.879-2.023c1.045-0.604,2.088-1.307,3.092-2.08
	c0.803,2.316,2.162,4.711,3.716,6.971C39.159,81.582,34.596,83.723,32.194,84.764z M53.6,86.176
	c-1.178-1.176-3.01-3.084-4.879-5.338c-3.806-4.592-6.11-8.596-6.701-11.631l0.328-0.568l11.432-19.801l7.809,13.508
	c0.392,1.807,0.599,3.678,0.599,5.428c0,3.146-1.649,7.545-4.769,12.721C55.99,82.859,54.549,84.895,53.6,86.176z M72.84,76.691
	c-1.927-0.516-5.189-1.471-8.546-2.822c0.729-2.094,1.192-4.176,1.192-6.096c0-1.207-0.087-2.461-0.254-3.717
	c1.384,0.268,2.947,0.404,4.68,0.404c1.059,0,2.139-0.049,3.217-0.135C73.564,69.072,73.137,74.092,72.84,76.691z M84.762,58.859
	c-2.998,0.803-9.332,2.303-14.85,2.303c-2.281,0-4.174-0.256-5.635-0.758l-11.76-20.369l15.602-0.008c1.76,0.564,3.484,1.32,5,2.195
	c2.725,1.574,5.71,5.201,8.631,10.49C83.086,55.131,84.127,57.396,84.762,58.859z M79.461,43.441
	c-1.563-1.812-3.131-3.176-4.692-4.076c-1.043-0.604-2.171-1.154-3.341-1.637c1.463-1.684,2.86-3.924,4.181-6.705
	c4.329,1.996,8.462,4.877,10.563,6.434C84.764,38.867,82.308,41.213,79.461,43.441z"/>
</svg>
